<svg width="24" height="24" viewBox="0 0 24 24" fill="none" xmlns="http://www.w3.org/2000/svg">
<g clip-path="url(#clip0_198_723)">
<path d="M10.6001 6.82664C11.059 6.71923 11.5288 6.66554 12.0001 6.66664C16.6667 6.66664 19.3334 12 19.3334 12C18.9287 12.757 18.4461 13.4698 17.8934 14.1266M13.4134 13.4133C13.2303 13.6098 13.0095 13.7674 12.7642 13.8767C12.5189 13.986 12.254 14.0448 11.9855 14.0496C11.7169 14.0543 11.4502 14.0049 11.2012 13.9043C10.9521 13.8037 10.7259 13.654 10.536 13.4641C10.3461 13.2742 10.1963 13.0479 10.0958 12.7989C9.99516 12.5499 9.94577 12.2831 9.9505 12.0146C9.95524 11.746 10.014 11.4812 10.1233 11.2359C10.2326 10.9905 10.3902 10.7697 10.5867 10.5866M15.9601 15.96C14.8205 16.8286 13.4328 17.3099 12.0001 17.3333C7.33341 17.3333 4.66675 12 4.66675 12C5.49601 10.4546 6.64617 9.10438 8.04008 8.03998L15.9601 15.96Z" stroke="#D0D0D0" stroke-width="2" stroke-linecap="round" stroke-linejoin="round"/>
<path d="M4.66675 4.66663L19.3334 19.3333" stroke="#D0D0D0" stroke-width="2" stroke-linecap="round" stroke-linejoin="round"/>
</g>
<defs>
<clipPath id="clip0_198_723">
<rect width="16" height="16" fill="white" transform="translate(4 4)"/>
</clipPath>
</defs>
</svg>
