<svg width="214" height="39" viewBox="0 0 214 39" fill="none" xmlns="http://www.w3.org/2000/svg">
<g clip-path="url(#clip0_61_1353)">
<path d="M48.0009 28.5988L44.2524 24.8191V11.8469L46.7024 10.9586C47.2622 10.7551 47.6384 10.2184 47.6384 9.61237C47.6384 9.01094 47.2668 8.46966 46.7024 8.2661L24.2987 0.0867438C23.9867 -0.0289146 23.6426 -0.0289146 23.3352 0.0867438L0.935976 8.2661C0.376225 8.47429 0 9.00632 0 9.60774C0 10.2092 0.367049 10.7458 0.926799 10.954L9.19458 14.0398V23.4636C9.19458 23.7551 9.28176 24.0419 9.45152 24.2825C9.54328 24.4166 10.4058 25.6056 12.6219 26.7298C15.4161 28.1501 19.082 28.8672 23.5187 28.8672C27.9554 28.8672 31.6351 28.1501 34.4705 26.7344C36.7049 25.6195 37.5996 24.4398 37.6914 24.3102C37.8703 24.065 37.9621 23.7689 37.9621 23.4682V14.1369L41.4123 12.8832V24.8238L37.6638 28.6035C37.3977 28.8718 37.2463 29.2373 37.2463 29.6166C37.2463 29.996 37.3977 30.3615 37.6638 30.6298L41.4123 34.4095V37.5832C41.4123 38.3743 42.0455 39.0127 42.8301 39.0127C43.6146 39.0127 44.2478 38.3743 44.2478 37.5832V34.4095L47.9963 30.6298C48.5514 30.07 48.5514 29.1679 47.9963 28.6081L48.0009 28.5988ZM23.8169 2.95507L42.0409 9.61237L23.5187 16.3483L5.54244 9.62624L23.8169 2.95507ZM35.122 22.8992C30.2724 27.2988 15.8657 26.7946 12.0255 22.9131V15.1038L23.0186 19.2074C23.1929 19.2351 23.3581 19.3878 23.9913 19.2074L35.122 15.1593V22.8899V22.8992ZM42.8301 31.791L40.6691 29.612L42.8301 27.433L44.9911 29.612L42.8301 31.791Z" fill="#31225C"/>
</g>
<path d="M206.338 27.6654C204.466 27.6654 202.917 27.2566 201.69 26.4389C200.485 25.6213 199.636 24.5562 199.141 23.2436L202.271 21.888C202.659 22.7702 203.207 23.448 203.917 23.9214C204.628 24.3733 205.434 24.5992 206.338 24.5992C207.263 24.5992 208.038 24.4378 208.662 24.115C209.286 23.7708 209.598 23.2651 209.598 22.5981C209.598 21.9956 209.329 21.5222 208.791 21.1779C208.275 20.8122 207.457 20.5002 206.338 20.2419L204.369 19.7901C203.057 19.4673 201.97 18.8971 201.109 18.0795C200.249 17.2618 199.818 16.229 199.818 14.981C199.818 14.0342 200.098 13.195 200.658 12.4635C201.239 11.7319 202.002 11.1724 202.949 10.7851C203.917 10.3763 204.972 10.1719 206.112 10.1719C207.661 10.1719 209.006 10.4731 210.147 11.0756C211.309 11.6781 212.148 12.5603 212.664 13.7222L209.663 15.0778C208.996 13.7653 207.823 13.109 206.144 13.109C205.327 13.109 204.638 13.2811 204.079 13.6254C203.541 13.9697 203.272 14.4 203.272 14.9164C203.272 15.8847 204.111 16.584 205.789 17.0144L208.178 17.5953C209.792 18.0042 211.007 18.6174 211.825 19.435C212.664 20.2527 213.084 21.264 213.084 22.469C213.084 23.5018 212.783 24.4163 212.18 25.2124C211.599 25.987 210.792 26.5895 209.759 27.0199C208.727 27.4502 207.586 27.6654 206.338 27.6654Z" fill="#31225C"/>
<path d="M181.679 4.03516H185.165V10.3612L184.971 12.9433H185.165C185.638 12.1256 186.337 11.4586 187.262 10.9422C188.209 10.4258 189.242 10.1676 190.361 10.1676C192.362 10.1676 193.89 10.7701 194.944 11.975C195.998 13.1585 196.526 14.7507 196.526 16.7518V27.1447H193.072V17.2037C193.072 15.9342 192.728 14.9767 192.039 14.3312C191.372 13.6856 190.512 13.3629 189.457 13.3629C188.661 13.3629 187.929 13.5996 187.262 14.0729C186.617 14.5248 186.101 15.1381 185.713 15.9127C185.347 16.6873 185.165 17.505 185.165 18.3656V27.1447H181.679V4.03516Z" fill="#31225C"/>
<path d="M175.621 27.4018C174.89 27.4018 174.201 27.2942 173.556 27.079C172.932 26.8423 172.415 26.5196 172.007 26.1107C171.081 25.2285 170.619 23.9805 170.619 22.3667V13.7168H167.746V10.6829H170.619V6.03516H174.104V10.6829H178.139V13.7168H174.104V21.6244C174.104 22.5281 174.277 23.1629 174.621 23.5287C174.987 23.9375 175.546 24.1419 176.299 24.1419C176.687 24.1419 177.02 24.0989 177.3 24.0128C177.579 23.9052 177.891 23.7438 178.236 23.5287V26.9176C177.504 27.2404 176.633 27.4018 175.621 27.4018Z" fill="#31225C"/>
<path d="M156.737 27.6654C155.553 27.6654 154.499 27.4395 153.574 26.9876C152.649 26.5142 151.928 25.8579 151.411 25.0188C150.895 24.1796 150.637 23.2221 150.637 22.1462C150.637 21.0058 150.938 20.0268 151.54 19.2091C152.143 18.3699 152.961 17.7352 153.993 17.3048C155.026 16.853 156.177 16.627 157.447 16.627C158.415 16.627 159.287 16.7239 160.061 16.9175C160.857 17.0897 161.492 17.2941 161.966 17.5308V16.6593C161.966 15.605 161.578 14.755 160.804 14.1095C160.029 13.4425 159.028 13.109 157.802 13.109C156.963 13.109 156.167 13.3026 155.414 13.6899C154.66 14.0557 154.058 14.5614 153.606 15.2069L151.218 13.3672C151.928 12.3559 152.864 11.5705 154.026 11.011C155.209 10.4516 156.5 10.1719 157.899 10.1719C160.266 10.1719 162.095 10.7636 163.386 11.947C164.698 13.109 165.355 14.7443 165.355 16.853V27.149H161.966V25.1156H161.772C161.299 25.8472 160.621 26.4604 159.739 26.9553C158.856 27.4287 157.856 27.6654 156.737 27.6654ZM157.35 24.8251C158.211 24.8251 158.996 24.6207 159.706 24.2119C160.416 23.7815 160.965 23.2113 161.352 22.5013C161.761 21.7912 161.966 21.0273 161.966 20.2097C161.449 19.9084 160.857 19.6717 160.19 19.4996C159.523 19.3275 158.824 19.2414 158.092 19.2414C156.737 19.2414 155.736 19.5104 155.091 20.0483C154.467 20.5862 154.155 21.2963 154.155 22.1785C154.155 22.9531 154.445 23.5879 155.026 24.0828C155.607 24.5777 156.382 24.8251 157.35 24.8251Z" fill="#31225C"/>
<path d="M131.684 10.6883H134.976V12.9153H135.169C135.643 12.1407 136.342 11.4952 137.267 10.9788C138.214 10.4408 139.279 10.1719 140.463 10.1719C141.947 10.1719 143.292 10.5484 144.497 11.3015C145.702 12.0546 146.649 13.0982 147.337 14.4323C148.026 15.7448 148.37 17.2403 148.37 18.9186C148.37 20.597 148.026 22.1032 147.337 23.4373C146.649 24.7713 145.702 25.8149 144.497 26.568C143.292 27.2996 141.947 27.6654 140.463 27.6654C139.279 27.6654 138.214 27.4072 137.267 26.8908C136.342 26.3528 135.643 25.7073 135.169 24.9542H134.976L135.169 27.2458V34.1206H131.684V10.6883ZM139.946 24.4701C140.828 24.4701 141.646 24.2442 142.399 23.7923C143.174 23.3189 143.787 22.6626 144.239 21.8235C144.691 20.9843 144.917 20.016 144.917 18.9186C144.917 17.8213 144.691 16.853 144.239 16.0138C143.787 15.1746 143.174 14.5291 142.399 14.0773C141.646 13.6039 140.828 13.3672 139.946 13.3672C139.086 13.3672 138.268 13.6039 137.493 14.0773C136.74 14.5291 136.127 15.1746 135.654 16.0138C135.202 16.853 134.976 17.8213 134.976 18.9186C134.976 20.016 135.202 20.9843 135.654 21.8235C136.127 22.6626 136.74 23.3189 137.493 23.7923C138.268 24.2442 139.086 24.4701 139.946 24.4701Z" fill="#31225C"/>
<path d="M105.559 10.6883H108.851V12.9476H109.044C109.518 12.1299 110.228 11.4629 111.175 10.9465C112.121 10.4301 113.143 10.1719 114.241 10.1719C116.22 10.1719 117.727 10.7636 118.759 11.947C119.792 13.109 120.309 14.712 120.309 16.7562V27.149H116.855V17.208C116.855 15.917 116.532 14.9595 115.887 14.3355C115.241 13.6899 114.359 13.3672 113.24 13.3672C112.423 13.3672 111.691 13.5931 111.045 14.045C110.421 14.4968 109.927 15.0993 109.561 15.8524C109.217 16.6055 109.044 17.4232 109.044 18.3054V27.149H105.559V10.6883Z" fill="#31225C"/>
<path d="M93.1001 27.6654C91.9167 27.6654 90.8623 27.4395 89.9371 26.9876C89.0119 26.5142 88.291 25.8579 87.7746 25.0188C87.2582 24.1796 87 23.2221 87 22.1462C87 21.0058 87.3012 20.0268 87.9037 19.2091C88.5062 18.3699 89.3239 17.7352 90.3567 17.3048C91.3895 16.853 92.5407 16.627 93.8102 16.627C94.7785 16.627 95.6499 16.7239 96.4246 16.9175C97.2207 17.0897 97.8554 17.2941 98.3288 17.5308V16.6593C98.3288 15.605 97.9415 14.755 97.1669 14.1095C96.3923 13.4425 95.3917 13.109 94.1652 13.109C93.3261 13.109 92.5299 13.3026 91.7768 13.6899C91.0237 14.0557 90.4212 14.5614 89.9694 15.2069L87.581 13.3672C88.291 12.3559 89.227 11.5705 90.389 11.011C91.5724 10.4516 92.8634 10.1719 94.2621 10.1719C96.629 10.1719 98.4579 10.7636 99.749 11.947C101.062 13.109 101.718 14.7443 101.718 16.853V27.149H98.3288V25.1156H98.1352C97.6618 25.8472 96.984 26.4604 96.1018 26.9553C95.2196 27.4287 94.219 27.6654 93.1001 27.6654ZM93.7134 24.8251C94.5741 24.8251 95.3594 24.6207 96.0695 24.2119C96.7796 23.7815 97.3283 23.2113 97.7156 22.5013C98.1244 21.7912 98.3288 21.0273 98.3288 20.2097C97.8124 19.9084 97.2207 19.6717 96.5537 19.4996C95.8866 19.3275 95.1873 19.2414 94.4557 19.2414C93.1001 19.2414 92.0996 19.5104 91.4541 20.0483C90.8301 20.5862 90.5181 21.2963 90.5181 22.1785C90.5181 22.9531 90.8086 23.5879 91.3895 24.0828C91.9705 24.5777 92.7451 24.8251 93.7134 24.8251Z" fill="#31225C"/>
<path d="M80.501 4.03516H83.9868V27.1447H80.501V4.03516Z" fill="#31225C"/>
<path d="M61.7891 4.03516H69.7289C71.106 4.03516 72.3648 4.3364 73.5052 4.93888C74.6671 5.54136 75.5816 6.38054 76.2486 7.4564C76.9372 8.53226 77.2815 9.74798 77.2815 11.1036C77.2815 12.4592 76.9372 13.6749 76.2486 14.7507C75.5816 15.8266 74.6671 16.6658 73.5052 17.2683C72.3648 17.8707 71.106 18.172 69.7289 18.172H65.3394V27.1447H61.7891V4.03516ZM69.8258 14.8153C71.0092 14.8153 71.956 14.4495 72.666 13.7179C73.3976 12.9648 73.7634 12.0934 73.7634 11.1036C73.7634 10.1138 73.3976 9.25309 72.666 8.5215C71.956 7.7684 71.0092 7.39184 69.8258 7.39184H65.3394V14.8153H69.8258Z" fill="#31225C"/>
<defs>
<clipPath id="clip0_61_1353">
<rect width="48.4138" height="39" fill="white"/>
</clipPath>
</defs>
</svg>
