<svg width="16" height="18" viewBox="0 0 16 18" fill="none" xmlns="http://www.w3.org/2000/svg">
<g clip-path="url(#clip0_61_1315)">
<mask id="mask0_61_1315" style="mask-type:alpha" maskUnits="userSpaceOnUse" x="0" y="0" width="16" height="17">
<path d="M0 0.544969V16.853H15.982V0.542969H0V0.544969Z" fill="white"/>
</mask>
<g mask="url(#mask0_61_1315)">
<path fill-rule="evenodd" clip-rule="evenodd" d="M5.48991 0.992891C3.48396 1.6922 1.82768 3.14269 0.869913 5.03889C0.542005 5.68748 0.303181 6.37738 0.159913 7.08989C-0.198708 8.87713 0.0497662 10.7329 0.865913 12.3629C1.39947 13.4192 2.15465 14.348 3.07991 15.0859C3.95427 15.7824 4.96298 16.2911 6.04291 16.5799C7.40191 16.9439 8.84791 16.9359 10.2159 16.6239C11.4603 16.3428 12.6108 15.7448 13.5559 14.8879C14.5429 13.9809 15.2479 12.7879 15.6209 11.5039C16.0289 10.1059 16.0809 8.61089 15.8269 7.17389H8.15591V10.3549H12.5999C12.5112 10.8629 12.3211 11.3479 12.0409 11.7809C11.7606 12.2138 11.3961 12.5859 10.9689 12.8749C10.4259 13.2342 9.81385 13.4761 9.17191 13.5849C8.53191 13.6949 7.86491 13.7079 7.22491 13.5809C6.57257 13.4472 5.95496 13.1799 5.41091 12.7959C4.53973 12.1807 3.88607 11.305 3.54391 10.2949C3.19559 9.2659 3.19559 8.15088 3.54391 7.12189C3.78917 6.39894 4.19381 5.74037 4.72791 5.19489C5.38972 4.51412 6.23728 4.04321 7.16491 3.84089C7.95844 3.67282 8.78139 3.70582 9.55891 3.93689C10.2177 4.1392 10.8196 4.49377 11.3159 4.97189L12.8159 3.47189C13.0789 3.20489 13.3549 2.94689 13.6089 2.66989C12.8482 1.96179 11.956 1.40971 10.9829 1.04489C9.21221 0.399206 7.27353 0.38085 5.49091 0.992891" fill="white"/>
</g>
<mask id="mask1_61_1315" style="mask-type:alpha" maskUnits="userSpaceOnUse" x="0" y="0" width="14" height="8">
<path d="M13.6101 0.542969H0.871094V7.11297H13.6111V0.542969H13.6101Z" fill="white"/>
</mask>
<g mask="url(#mask1_61_1315)">
<path fill-rule="evenodd" clip-rule="evenodd" d="M5.49209 0.989293C7.27461 0.378146 9.21254 0.395083 10.9841 1.03729C11.9571 1.39729 12.8471 1.95729 13.6101 2.66329C13.3561 2.93929 13.0801 3.19829 12.8171 3.46529L11.3171 4.96529C10.8197 4.48865 10.2181 4.13431 9.56009 3.93029C8.78302 3.69672 7.95952 3.66335 7.16609 3.83329C6.24609 4.03129 5.39109 4.51329 4.72909 5.18829C4.19447 5.7322 3.78972 6.38993 3.54509 7.11229C2.65509 6.42129 1.76509 5.73229 0.871094 5.03929C1.82745 3.14113 3.48406 1.68891 5.49109 0.989293" fill="#EA4335"/>
</g>
<path fill-rule="evenodd" clip-rule="evenodd" d="M0.164305 7.08225C0.308305 6.37225 0.544305 5.68025 0.874305 5.03125C1.7643 5.72325 2.6543 6.41125 3.5483 7.10425C3.19751 8.13317 3.19751 9.24933 3.5483 10.2783C2.6583 10.9713 1.7683 11.6632 0.878305 12.3513C0.055182 10.725 -0.196332 8.86892 0.164305 7.08225Z" fill="#FBBC05"/>
<path fill-rule="evenodd" clip-rule="evenodd" d="M8.15734 7.16797H15.8283C16.0892 8.60823 16.0187 10.089 15.6223 11.498C15.2493 12.783 14.5443 13.975 13.5573 14.883L10.9673 12.871C11.3944 12.5818 11.7589 12.2095 12.0389 11.7764C12.319 11.3432 12.5089 10.8581 12.5973 10.35H8.15234C8.15734 9.28997 8.15734 8.22797 8.15734 7.16797Z" fill="#4285F4"/>
<path fill-rule="evenodd" clip-rule="evenodd" d="M0.871094 12.3553C1.76109 11.6663 2.65109 10.9743 3.54109 10.2812C3.88441 11.2913 4.53778 12.1673 5.40809 12.7843C5.95286 13.1676 6.57066 13.4348 7.22309 13.5693C7.86309 13.7003 8.52509 13.6832 9.16909 13.5732C9.81139 13.4646 10.4238 13.2227 10.9671 12.8632L13.5571 14.8752C12.6241 15.7392 11.4531 16.3263 10.2171 16.6113C8.84909 16.9223 7.40309 16.9313 6.04409 16.5673C4.96346 16.2802 3.9544 15.7714 3.08109 15.0732C2.15744 14.3368 1.40362 13.4097 0.871094 12.3553Z" fill="#34A853"/>
</g>
<defs>
<clipPath id="clip0_61_1315">
<rect width="16" height="17" fill="white" transform="translate(0 0.5)"/>
</clipPath>
</defs>
</svg>
