<svg width="110" height="26" viewBox="0 0 110 26" fill="none" xmlns="http://www.w3.org/2000/svg">
<path d="M0.5 5C0.5 2.51472 2.51472 0.5 5 0.5H47.5V25.5H5C2.51472 25.5 0.5 23.4853 0.5 21V5Z" fill="white"/>
<path d="M0.5 5C0.5 2.51472 2.51472 0.5 5 0.5H47.5V25.5H5C2.51472 25.5 0.5 23.4853 0.5 21V5Z" stroke="#603AC8"/>
<path d="M34.2534 10.1208H36.7134V11.4008H36.8734C37.1801 10.9074 37.6134 10.5208 38.1734 10.2408C38.7334 9.94745 39.3401 9.80078 39.9934 9.80078C41.2201 9.80078 42.1534 10.1741 42.7934 10.9208C43.4334 11.6674 43.7534 12.6874 43.7534 13.9808V20.3208H41.1334V14.3008C41.1334 13.6474 40.9668 13.1408 40.6334 12.7808C40.3001 12.4208 39.8334 12.2408 39.2334 12.2408C38.5268 12.2408 37.9534 12.5141 37.5134 13.0608C37.0868 13.6074 36.8734 14.2941 36.8734 15.1208V20.3208H34.2534V10.1208Z" fill="#603AC8"/>
<path d="M26.1624 20.6408C25.0824 20.6408 24.1957 20.3274 23.5024 19.7008C22.8091 19.0608 22.4624 18.2274 22.4624 17.2008C22.4624 16.5208 22.6424 15.9208 23.0024 15.4008C23.3624 14.8808 23.8557 14.4808 24.4824 14.2008C25.1091 13.9208 25.8024 13.7808 26.5624 13.7808C27.6157 13.7808 28.5157 13.9341 29.2624 14.2408V13.8008C29.2624 13.2408 29.0491 12.7874 28.6224 12.4408C28.2091 12.0941 27.6491 11.9208 26.9424 11.9208C26.4624 11.9208 25.9957 12.0341 25.5424 12.2608C25.1024 12.4741 24.7357 12.7608 24.4424 13.1208L22.7624 11.8008C23.2557 11.1608 23.8757 10.6674 24.6224 10.3208C25.3691 9.97411 26.1824 9.80078 27.0624 9.80078C28.6224 9.80078 29.8091 10.1608 30.6224 10.8808C31.4357 11.6008 31.8424 12.6541 31.8424 14.0408V20.3208H29.2624V19.2808H29.1024C28.7957 19.6808 28.3891 20.0074 27.8824 20.2608C27.3891 20.5141 26.8157 20.6408 26.1624 20.6408ZM26.7824 18.6008C27.5424 18.6008 28.1424 18.3608 28.5824 17.8808C29.0357 17.3874 29.2624 16.8141 29.2624 16.1608C28.5824 15.8408 27.8691 15.6808 27.1224 15.6808C25.7624 15.6808 25.0824 16.1874 25.0824 17.2008C25.0824 17.6141 25.2291 17.9541 25.5224 18.2208C25.8157 18.4741 26.2357 18.6008 26.7824 18.6008Z" fill="#603AC8"/>
<path d="M17.9448 6H20.5648V20.32H17.9448V6Z" fill="#603AC8"/>
<path d="M6 6H11.04C11.9467 6 12.7733 6.19333 13.52 6.58C14.2667 6.95333 14.8533 7.48667 15.28 8.18C15.7067 8.86 15.92 9.64 15.92 10.52C15.92 11.4 15.7067 12.1867 15.28 12.88C14.8533 13.5733 14.2667 14.1133 13.52 14.5C12.7733 14.8733 11.9467 15.06 11.04 15.06H8.7V20.32H6V6ZM11.12 12.5C11.7867 12.5 12.3067 12.3067 12.68 11.92C13.0667 11.5333 13.26 11.0667 13.26 10.52C13.26 9.97333 13.0667 9.51333 12.68 9.14C12.3067 8.75333 11.7867 8.56 11.12 8.56H8.7V12.5H11.12Z" fill="#603AC8"/>
<g clip-path="url(#clip0_58_473)">
<path d="M48 0H106C108.209 0 110 1.79086 110 4V22C110 24.2091 108.209 26 106 26H48V0Z" fill="#603AC8"/>
<path d="M84.5693 5.67969H87.1893V9.29969L87.0293 11.0797H87.1893C87.4827 10.5997 87.9093 10.213 88.4693 9.91969C89.0293 9.62635 89.636 9.47969 90.2893 9.47969C91.5293 9.47969 92.476 9.85302 93.1293 10.5997C93.796 11.333 94.1293 12.353 94.1293 13.6597V19.9997H91.5093V13.9797C91.5093 13.3264 91.3293 12.8197 90.9693 12.4597C90.6227 12.0997 90.156 11.9197 89.5693 11.9197C88.876 11.9197 88.3027 12.1997 87.8493 12.7597C87.4093 13.3197 87.1893 14.0064 87.1893 14.8197V19.9997H84.5693V5.67969Z" fill="white"/>
<path d="M80.5521 20.1597C80.0454 20.1597 79.5788 20.0863 79.1521 19.9397C78.7254 19.7797 78.3788 19.5663 78.1121 19.2997C77.4854 18.6997 77.1721 17.8463 77.1721 16.7397V12.0397H75.3921V9.79968H77.1721V6.91968H79.7921V9.79968H82.2921V12.0397H79.7921V16.2597C79.7921 16.7797 79.9054 17.153 80.1321 17.3797C80.3188 17.593 80.6388 17.6997 81.0921 17.6997C81.3454 17.6997 81.5521 17.6663 81.7121 17.5997C81.8854 17.533 82.1054 17.4197 82.3721 17.2597V19.8197C81.7988 20.0463 81.1921 20.1597 80.5521 20.1597Z" fill="white"/>
<path d="M68.2166 20.3205C67.1366 20.3205 66.2499 20.0071 65.5566 19.3805C64.8633 18.7405 64.5166 17.9071 64.5166 16.8805C64.5166 16.2005 64.6966 15.6005 65.0566 15.0805C65.4166 14.5605 65.9099 14.1605 66.5366 13.8805C67.1633 13.6005 67.8566 13.4605 68.6166 13.4605C69.6699 13.4605 70.5699 13.6138 71.3166 13.9205V13.4805C71.3166 12.9205 71.1033 12.4671 70.6766 12.1205C70.2633 11.7738 69.7033 11.6005 68.9966 11.6005C68.5166 11.6005 68.0499 11.7138 67.5966 11.9405C67.1566 12.1538 66.7899 12.4405 66.4966 12.8005L64.8166 11.4805C65.3099 10.8405 65.9299 10.3471 66.6766 10.0005C67.4233 9.6538 68.2366 9.48047 69.1166 9.48047C70.6766 9.48047 71.8633 9.84047 72.6766 10.5605C73.4899 11.2805 73.8966 12.3338 73.8966 13.7205V20.0005H71.3166V18.9605H71.1566C70.8499 19.3605 70.4433 19.6871 69.9366 19.9405C69.4433 20.1938 68.8699 20.3205 68.2166 20.3205ZM68.8366 18.2805C69.5966 18.2805 70.1966 18.0405 70.6366 17.5605C71.0899 17.0671 71.3166 16.4938 71.3166 15.8405C70.6366 15.5205 69.9233 15.3605 69.1766 15.3605C67.8166 15.3605 67.1366 15.8671 67.1366 16.8805C67.1366 17.2938 67.2833 17.6338 67.5766 17.9005C67.8699 18.1538 68.2899 18.2805 68.8366 18.2805Z" fill="white"/>
<path d="M53.6401 5.67969H58.6801C59.5868 5.67969 60.4135 5.87302 61.1601 6.25969C61.9068 6.63302 62.4935 7.16635 62.9201 7.85969C63.3468 8.53969 63.5601 9.31969 63.5601 10.1997C63.5601 11.0797 63.3468 11.8664 62.9201 12.5597C62.4935 13.253 61.9068 13.793 61.1601 14.1797C60.4135 14.553 59.5868 14.7397 58.6801 14.7397H56.3401V19.9997H53.6401V5.67969ZM58.7601 12.1797C59.4268 12.1797 59.9468 11.9864 60.3201 11.5997C60.7068 11.213 60.9001 10.7464 60.9001 10.1997C60.9001 9.65302 60.7068 9.19302 60.3201 8.81969C59.9468 8.43302 59.4268 8.23969 58.7601 8.23969H56.3401V12.1797H58.7601Z" fill="white"/>
<path d="M100.383 19.3205C99.1427 19.3205 98.136 19.0671 97.3627 18.5605C96.6027 18.0538 96.0694 17.3938 95.7627 16.5805L98.1027 15.5605C98.316 16.0405 98.616 16.4071 99.0027 16.6605C99.4027 16.9005 99.8627 17.0205 100.383 17.0205C100.863 17.0205 101.263 16.9471 101.583 16.8005C101.903 16.6405 102.063 16.3871 102.063 16.0405C102.063 15.7071 101.916 15.4605 101.623 15.3005C101.329 15.1271 100.889 14.9738 100.303 14.8405L99.1027 14.5805C98.276 14.3805 97.5894 14.0205 97.0427 13.5005C96.496 12.9671 96.2227 12.3071 96.2227 11.5205C96.2227 10.9338 96.396 10.4071 96.7427 9.94047C97.1027 9.4738 97.5827 9.1138 98.1827 8.86047C98.796 8.60714 99.4694 8.48047 100.203 8.48047C102.309 8.48047 103.716 9.22047 104.423 10.7005L102.183 11.6805C101.783 10.9605 101.143 10.6005 100.263 10.6005C99.8094 10.6005 99.4494 10.6871 99.1827 10.8605C98.916 11.0205 98.7827 11.2271 98.7827 11.4805C98.7827 11.9605 99.236 12.3205 100.143 12.5605L101.643 12.9205C102.656 13.1738 103.416 13.5605 103.923 14.0805C104.443 14.6005 104.703 15.2405 104.703 16.0005C104.703 16.6538 104.509 17.2338 104.123 17.7405C103.749 18.2338 103.229 18.6205 102.563 18.9005C101.909 19.1805 101.183 19.3205 100.383 19.3205Z" fill="white"/>
<path d="M127.454 18.6903C102.171 15.5746 64.5288 24.4313 58.4599 28.4664L59.2472 39.8219C62.1232 27.4256 112.312 20.0472 127.454 18.6903Z" fill="white" stroke="#603AC8" stroke-width="0.7"/>
<path d="M117 19.0005C101.362 18.9367 75.3833 23.6616 65.5001 29.0002L65.8408 30.9439C79.2708 22.9802 101.702 20.8805 117 19.0005Z" fill="#603AC8"/>
<path d="M81.5 23L83 25" stroke="white" stroke-width="0.5"/>
<path d="M89.5 21.5L91 23.5" stroke="white" stroke-width="0.5"/>
<path d="M100 20L101 21.5" stroke="white" stroke-width="0.5"/>
<path d="M107 19L108 20.5" stroke="white" stroke-width="0.5"/>
</g>
<defs>
<clipPath id="clip0_58_473">
<path d="M48 0H106C108.209 0 110 1.79086 110 4V22C110 24.2091 108.209 26 106 26H48V0Z" fill="white"/>
</clipPath>
</defs>
</svg>
