<svg width="12" height="11" viewBox="0 0 12 11" fill="none" xmlns="http://www.w3.org/2000/svg">
<path d="M10.9833 5.38306L8.87392 7.20322L9.51657 9.92525C9.55203 10.073 9.5429 10.228 9.49033 10.3706C9.43777 10.5131 9.34412 10.6369 9.22123 10.7263C9.09834 10.8157 8.95171 10.8667 8.79987 10.8728C8.64804 10.8789 8.4978 10.8398 8.36814 10.7606L6.00095 9.30369L3.63235 10.7606C3.50271 10.8394 3.35265 10.878 3.20108 10.8717C3.0495 10.8654 2.90318 10.8144 2.78054 10.7251C2.65791 10.6357 2.56444 10.5121 2.5119 10.3698C2.45937 10.2275 2.45012 10.0728 2.48532 9.92525L3.13032 7.20322L1.02095 5.38306C0.906243 5.28392 0.823287 5.15319 0.782439 5.00719C0.741591 4.86119 0.744662 4.70639 0.791267 4.56212C0.837872 4.41786 0.925947 4.29052 1.04449 4.19601C1.16304 4.1015 1.3068 4.04401 1.45782 4.03072L4.22345 3.80759L5.29032 1.22572C5.34807 1.08501 5.44636 0.964645 5.57268 0.879937C5.69901 0.795229 5.84768 0.75 5.99978 0.75C6.15188 0.75 6.30054 0.795229 6.42687 0.879937C6.5532 0.964645 6.65148 1.08501 6.70923 1.22572L7.77564 3.80759L10.5413 4.03072C10.6926 4.04351 10.8368 4.10068 10.9557 4.19506C11.0747 4.28944 11.1632 4.41683 11.2101 4.56127C11.257 4.70571 11.2602 4.86078 11.2194 5.00705C11.1785 5.15332 11.0954 5.28428 10.9805 5.38353L10.9833 5.38306Z" fill="#BC6F1C"/>
</svg>
