<svg width="11" height="8" viewBox="0 0 11 8" fill="none" xmlns="http://www.w3.org/2000/svg">
<path d="M0.201293 4.4723C0.0724049 4.34702 0 4.17714 0 4C0 3.82286 0.0724049 3.65297 0.201293 3.5277L3.63884 0.187526C3.7685 0.0658376 3.94217 -0.00149681 4.12243 2.52534e-05C4.3027 0.00154732 4.47513 0.071804 4.6026 0.195663C4.73007 0.319522 4.80238 0.487073 4.80394 0.66223C4.80551 0.837387 4.73621 1.00613 4.61098 1.13213L2.34701 3.33196H10.3125C10.4948 3.33196 10.6697 3.40235 10.7986 3.52763C10.9276 3.65291 11 3.82283 11 4C11 4.17717 10.9276 4.34709 10.7986 4.47237C10.6697 4.59765 10.4948 4.66803 10.3125 4.66803H2.34701L4.61098 6.86787C4.73621 6.99387 4.80551 7.16261 4.80394 7.33777C4.80238 7.51293 4.73007 7.68048 4.6026 7.80434C4.47513 7.92819 4.3027 7.99845 4.12243 7.99997C3.94217 8.0015 3.7685 7.93416 3.63884 7.81247L0.201293 4.4723Z" fill="#603AC8"/>
</svg>
