<svg width="7" height="12" viewBox="0 0 7 12" fill="none" xmlns="http://www.w3.org/2000/svg">
<path d="M0.00048399 0.545845V11.4542C0.000398636 11.5621 0.032341 11.6676 0.0922661 11.7574C0.152191 11.8472 0.237405 11.9171 0.33712 11.9585C0.436834 11.9998 0.546566 12.0106 0.652422 11.9895C0.758279 11.9684 0.855502 11.9164 0.931781 11.84L6.38594 6.38588C6.43665 6.33523 6.47688 6.27507 6.50432 6.20886C6.53177 6.14265 6.5459 6.07168 6.5459 6C6.5459 5.92832 6.53177 5.85735 6.50432 5.79114C6.47688 5.72493 6.43665 5.66477 6.38594 5.61412L0.931781 0.159964C0.855502 0.0835992 0.758279 0.0315843 0.652422 0.0105038C0.546566 -0.0105768 0.436834 0.000224981 0.33712 0.0415416C0.237405 0.0828581 0.152191 0.152832 0.0922661 0.242604C0.032341 0.332376 0.000398636 0.43791 0.00048399 0.545845Z" fill="#603AC8"/>
</svg>
