<svg width="7" height="12" viewBox="0 0 7 12" fill="none" xmlns="http://www.w3.org/2000/svg">
<path d="M6.54541 0.545845V11.4542C6.5455 11.5621 6.51356 11.6676 6.45363 11.7574C6.39371 11.8472 6.30849 11.9171 6.20878 11.9585C6.10906 11.9998 5.99933 12.0106 5.89348 11.9895C5.78762 11.9684 5.6904 11.9164 5.61412 11.84L0.159963 6.38588C0.109252 6.33523 0.0690231 6.27507 0.0415755 6.20886C0.0141278 6.14265 0 6.07168 0 6C0 5.92832 0.0141278 5.85735 0.0415755 5.79114C0.0690231 5.72493 0.109252 5.66477 0.159963 5.61412L5.61412 0.159964C5.6904 0.0835992 5.78762 0.0315843 5.89348 0.0105038C5.99933 -0.0105768 6.10906 0.000224981 6.20878 0.0415416C6.30849 0.0828581 6.39371 0.152832 6.45363 0.242604C6.51356 0.332376 6.5455 0.43791 6.54541 0.545845Z" fill="#DFDFDF"/>
</svg>
